<?xml version="1.0" encoding="UTF-8" standalone="no"?>
<svg xmlns="http://www.w3.org/2000/svg" xmlns:xlink="http://www.w3.org/1999/xlink" clip-rule="evenodd" stroke-miterlimit="10" viewBox="0 0 577.29 651.97">
    <desc>SVG generated by Lineform</desc>
    <defs/>
    <g>
        <path d="M 205.81 45.06 C 209.25 36.55 223.57 33.95 230.38 36.46 C 238.12 39.31 244.36 50.78 242.39 58.79 C 240.67 65.81 227.65 95.04 222.86 106.61 C 206.88 145.20 221.21 161.68 208.27 178.82 C 203.62 184.98 180.16 190.23 164.44 196.10 C 157.11 198.83 150.55 207.90 153.68 217.04 C 158.57 231.26 172.97 228.72 180.38 226.37 C 216.31 214.96 233.19 207.40 251.19 206.35 C 277.71 204.79 291.74 211.66 319.88 217.47 C 338.70 221.35 358.58 216.22 371.50 207.19 C 373.15 206.04 392.78 193.44 398.13 190.92 C 407.09 186.70 419.28 182.13 431.36 182.52 C 450.40 183.14 466.62 183.71 484.81 184.62 C 495.60 185.16 513.38 188.19 524.69 204.52 C 533.02 216.54 539.70 236.85 526.79 257.04 C 510.20 282.99 486.94 311.75 465.96 365.84 C 456.74 389.61 462.31 400.66 461.60 426.85 C 460.79 457.09 458.43 484.52 442.53 502.40 C 426.66 520.24 405.22 542.58 395.71 552.54 C 383.70 565.13 381.30 565.67 359.92 573.43 C 320.83 587.63 294.21 595.32 269.48 604.04 C 240.10 613.68 243.02 614.82 231.57 591.34 C 222.98 573.73 207.48 570.89 192.94 570.64 C 159.33 570.07 137.21 569.71 101.44 566.28 C 69.17 563.18 42.00 546.68 35.38 522.12 C 26.54 489.35 34.55 467.25 40.83 449.25 C 52.10 416.96 68.82 378.81 82.16 346.36 C 120.97 252.01 159.19 159.70 197.15 65.38 Z M 202.42 59.58 " stroke="#000000" stroke-width="8.00" fill="none"/>
        <path d="M 108.44 225.62 L 95.78 219.85 L 112.48 199.60 Z M 108.44 225.62 " fill-rule="non-zero" fill="#FF0000"/>
        <path d="M 199.54 60.50 C 192.43 78.45 191.62 99.16 187.38 109.62 C 172.15 147.19 161.65 174.66 157.19 184.24 C 153.70 191.71 141.91 202.14 138.16 211.05 " stroke="#000000" stroke-width="3.00" fill="none"/>
        <g>
            <path d="M 152.72 208.95 L 144.36 205.48 L 147.83 197.12 L 156.19 200.59 Z M 152.72 208.95 " fill-rule="non-zero" fill="#000000"/>
            <path d="M 156.19 200.59 L 147.83 197.12 L 151.31 188.76 L 159.66 192.24 Z M 156.19 200.59 " fill-rule="non-zero" fill="#FFFFFF"/>
            <path d="M 159.66 192.24 L 151.31 188.76 L 154.78 180.41 L 163.13 183.88 Z M 159.66 192.24 " fill-rule="non-zero" fill="#000000"/>
            <path d="M 144.44 205.51 L 136.08 202.04 L 139.55 193.68 L 147.91 197.15 Z M 144.44 205.51 " fill-rule="non-zero" fill="#FFFFFF"/>
            <path d="M 151.38 188.79 L 143.02 185.32 L 146.49 176.97 L 154.85 180.44 Z M 151.38 188.79 " fill-rule="non-zero" fill="#FFFFFF"/>
            <path d="M 147.98 197.18 L 139.62 193.71 L 143.09 185.35 L 151.45 188.83 Z M 147.98 197.18 " fill-rule="non-zero" fill="#000000"/>
            <path d="M 136.15 202.07 L 127.79 198.60 L 131.27 190.24 L 139.62 193.71 Z M 136.15 202.07 " fill-rule="non-zero" fill="#000000"/>
            <path d="M 139.62 193.71 L 131.27 190.24 L 134.74 181.88 L 143.09 185.35 Z M 139.62 193.71 " fill-rule="non-zero" fill="#FFFFFF"/>
            <path d="M 143.09 185.35 L 134.74 181.88 L 138.21 173.53 L 146.57 177.00 Z M 143.09 185.35 " fill-rule="non-zero" fill="#000000"/>
            <path d="M 127.87 198.63 L 119.51 195.16 L 122.98 186.80 L 131.34 190.27 Z M 127.87 198.63 " fill-rule="non-zero" fill="#FFFFFF"/>
            <path d="M 134.81 181.91 L 126.45 178.44 L 129.93 170.08 L 138.28 173.56 Z M 134.81 181.91 " fill-rule="non-zero" fill="#FFFFFF"/>
            <path d="M 131.41 190.30 L 123.06 186.83 L 126.53 178.47 L 134.88 181.94 Z M 131.41 190.30 " fill-rule="non-zero" fill="#000000"/>
            <path d="M 119.61 195.54 L 111.25 192.07 L 114.72 183.71 L 123.08 187.18 Z M 119.61 195.54 " fill-rule="non-zero" fill="#000000"/>
            <path d="M 123.08 187.18 L 114.72 183.71 L 118.19 175.36 L 126.55 178.83 Z M 123.08 187.18 " fill-rule="non-zero" fill="#FFFFFF"/>
            <path d="M 126.55 178.83 L 118.19 175.36 L 121.67 167.00 L 130.02 170.47 Z M 126.55 178.83 " fill-rule="non-zero" fill="#000000"/>
        </g>
        <text xml:space="preserve" font-family="Liberation Sans" font-size="7.00" transform="matrix(1.8681, 0, 0, 1.8681, 0, 0)" opacity="0.49">
            <tspan x="80.54" y="15.84">Tarzanbocht</tspan>
        </text>
        <text xml:space="preserve" font-family="Liberation Sans" font-size="7.00" transform="matrix(1.8681, 0, 0, 1.8681, 0, 0)" opacity="0.49">
            <tspan x="121.32" y="91.12">Gerlach</tspan>
            <tspan x="121.32" y="98.12">bocht</tspan>
        </text>
        <text xml:space="preserve" font-family="Liberation Sans" font-size="7.00" transform="matrix(1.8681, 0, 0, 1.8681, 0, 0)" opacity="0.49">
            <tspan x="79.48" y="134.92">Hugenholtzbocht</tspan>
        </text>
        <text xml:space="preserve" font-family="Liberation Sans" font-size="7.00" transform="matrix(1.8681, 0, 0, 1.8681, 0, 0)" opacity="0.49">
            <tspan x="177.64" y="89.08">Ron </tspan>
            <tspan x="177.64" y="96.08">Slotemaker-</tspan>
            <tspan x="177.64" y="103.08">bocht</tspan>
        </text>
        <text xml:space="preserve" font-family="Liberation Sans" font-size="7.00" transform="matrix(1.8681, 0, 0, 1.8681, 0, 0)" opacity="0.49">
            <tspan x="274.42" y="96.17">Scheivlak</tspan>
        </text>
        <text xml:space="preserve" font-family="Liberation Sans" font-size="7.00" transform="matrix(1.8681, 0, 0, 1.8681, 0, 0)" opacity="0.49">
            <tspan x="107.89" y="301.73">Parnoramabocht</tspan>
        </text>
        <text xml:space="preserve" font-family="Liberation Sans" font-size="7.00" transform="matrix(1.8681, 0, 0, 1.8681, 0, 0)" opacity="0.49">
            <tspan x="255.39" y="211.47">Hondenvlak</tspan>
        </text>
        <text xml:space="preserve" font-family="Liberation Sans" font-size="7.00" transform="matrix(1.8681, 0, 0, 1.8681, 0, 0)" opacity="0.49">
            <tspan x="203.10" y="314.87">Tunnel Oost</tspan>
        </text>
        <text xml:space="preserve" font-family="Liberation Sans" font-size="7.00" transform="matrix(1.8681, 0, 0, 1.8681, 0, 0)" opacity="0.49">
            <tspan x="15.98" y="142.77">Tunnel West</tspan>
        </text>
        <text xml:space="preserve" font-family="Liberation Sans" font-size="7.00" transform="matrix(1.8681, 0, 0, 1.8681, 0, 0)" opacity="0.49">
            <tspan x="25.84" y="285.79">Bos Uit</tspan>
        </text>
        <text xml:space="preserve" font-family="Liberation Sans" font-size="7.00" transform="matrix(1.8681, 0, 0, 1.8681, 0, 0)" opacity="0.49">
            <tspan x="58.92" y="297.26">Pulleveit</tspan>
        </text>
    </g>
</svg>